<svg width="14" height="13" viewBox="0 0 14 13" fill="none" xmlns="http://www.w3.org/2000/svg">
<g clip-path="url(#clip0_556_2563)">
<rect width="14" height="13" fill="#F5F1E6"/>
<path d="M6.4165 2.16663H2.33317C2.02375 2.16663 1.72701 2.28076 1.50821 2.48393C1.28942 2.68709 1.1665 2.96264 1.1665 3.24996V10.8333C1.1665 11.1206 1.28942 11.3962 1.50821 11.5993C1.72701 11.8025 2.02375 11.9166 2.33317 11.9166H10.4998C10.8093 11.9166 11.106 11.8025 11.3248 11.5993C11.5436 11.3962 11.6665 11.1206 11.6665 10.8333V7.04163M10.7915 1.35413C11.0236 1.13864 11.3383 1.01758 11.6665 1.01758C11.9947 1.01758 12.3094 1.13864 12.5415 1.35413C12.7736 1.56962 12.9039 1.86188 12.9039 2.16663C12.9039 2.47137 12.7736 2.76364 12.5415 2.97913L6.99984 8.12496L4.6665 8.66663L5.24984 6.49996L10.7915 1.35413Z" stroke="#2E7D32" stroke-width="2" stroke-linecap="round" stroke-linejoin="round"/>
</g>
<defs>
<clipPath id="clip0_556_2563">
<rect width="14" height="13" fill="white"/>
</clipPath>
</defs>
</svg>
