<svg width="44" height="41" viewBox="0 0 44 41" fill="none" xmlns="http://www.w3.org/2000/svg">
<path d="M22 38.5C32.7696 38.5 41.5 30.4411 41.5 20.5C41.5 10.5589 32.7696 2.5 22 2.5C11.2304 2.5 2.5 10.5589 2.5 20.5C2.5 30.4411 11.2304 38.5 22 38.5Z" stroke="#172E03" stroke-width="5" stroke-linecap="round" stroke-linejoin="round"/>
<path d="M27.318 16.7124C27.318 19.3504 24.9376 22.3362 21.9999 22.3362C19.0621 22.3362 16.6816 19.3504 16.6816 16.7124C16.6816 14.0745 19.0621 12.7852 21.9999 12.7852C24.9376 12.7852 27.318 14.0575 27.318 16.7124Z" stroke="#172E03" stroke-width="5" stroke-linecap="round" stroke-linejoin="round"/>
<path d="M11.0093 35.5611C11.6518 33.2932 13.1255 31.2738 15.2034 29.814C17.2812 28.3541 19.848 27.5348 22.5082 27.4822C25.1684 27.4296 27.7745 28.1467 29.925 29.523C32.0756 30.8993 32.9421 32.2189 33.7002 34.4591" stroke="#172E03" stroke-width="5" stroke-linecap="round" stroke-linejoin="round"/>
</svg>
