<svg width="60" height="51" viewBox="0 0 60 51" fill="none" xmlns="http://www.w3.org/2000/svg">
<path d="M30 48.5C45.1878 48.5 57.5 38.2025 57.5 25.5C57.5 12.7975 45.1878 2.5 30 2.5C14.8122 2.5 2.5 12.7975 2.5 25.5C2.5 38.2025 14.8122 48.5 30 48.5Z" stroke="#F5F1E6" stroke-width="5" stroke-linecap="round" stroke-linejoin="round"/>
<path d="M37.5 20.6611C37.5 24.0318 34.143 27.8469 30 27.8469C25.857 27.8469 22.5 24.0318 22.5 20.6611C22.5 17.2903 25.857 15.6429 30 15.6429C34.143 15.6429 37.5 17.2686 37.5 20.6611Z" stroke="#F5F1E6" stroke-width="5" stroke-linecap="round" stroke-linejoin="round"/>
<path d="M14.5 44.7449C15.4062 41.8471 17.4844 39.2667 20.4147 37.4013C23.3451 35.5359 26.9648 34.489 30.7164 34.4218C34.4679 34.3546 38.1433 35.2709 41.1761 37.0295C44.2089 38.7881 45.4309 40.4743 46.5 43.3367" stroke="#F5F1E6" stroke-width="5" stroke-linecap="round" stroke-linejoin="round"/>
</svg>
