<svg width="21" height="21" viewBox="0 0 21 21" fill="none" xmlns="http://www.w3.org/2000/svg">
<path d="M10.5 0C8.45963 0.00387329 6.46441 0.600497 4.75738 1.7172C3.05035 2.8339 1.70519 4.42249 0.885727 6.28946C0.066268 8.15643 -0.192114 10.2212 0.142054 12.2323C0.476221 14.2434 1.38851 16.114 2.76781 17.6162C3.75293 18.6831 4.94854 19.5346 6.27932 20.117C7.61009 20.6993 9.04717 21 10.5 21C11.9528 21 13.3899 20.6993 14.7207 20.117C16.0515 19.5346 17.2471 18.6831 18.2322 17.6162C19.6115 16.114 20.5238 14.2434 20.8579 12.2323C21.1921 10.2212 20.9337 8.15643 20.1143 6.28946C19.2948 4.42249 17.9496 2.8339 16.2426 1.7172C14.5356 0.600497 12.5404 0.00387329 10.5 0ZM10.5 18.9196C8.32075 18.9162 6.22775 18.0685 4.66141 16.5546C5.13696 15.3979 5.94594 14.4086 6.98554 13.7124C8.02515 13.0161 9.24845 12.6444 10.5 12.6444C11.7516 12.6444 12.9749 13.0161 14.0145 13.7124C15.0541 14.4086 15.863 15.3979 16.3386 16.5546C14.7723 18.0685 12.6793 18.9162 10.5 18.9196ZM8.396 8.40869C8.396 7.99292 8.5194 7.58649 8.75059 7.24079C8.98178 6.89509 9.31038 6.62565 9.69484 6.46654C10.0793 6.30743 10.5023 6.2658 10.9105 6.34691C11.3186 6.42802 11.6935 6.62824 11.9878 6.92223C12.282 7.21623 12.4824 7.5908 12.5636 7.99858C12.6448 8.40636 12.6031 8.82904 12.4438 9.21316C12.2846 9.59728 12.0149 9.92559 11.6689 10.1566C11.3229 10.3876 10.9161 10.5109 10.5 10.5109C9.94199 10.5109 9.40683 10.2894 9.01225 9.89515C8.61767 9.50092 8.396 8.96622 8.396 8.40869ZM17.7693 14.7152C16.8294 13.1089 15.3827 11.8594 13.656 11.1625C14.1916 10.5557 14.5407 9.80733 14.6611 9.00722C14.7816 8.20711 14.6685 7.38926 14.3353 6.6518C14.0021 5.91434 13.463 5.2886 12.7827 4.84968C12.1024 4.41075 11.3098 4.17728 10.5 4.17728C9.69018 4.17728 8.89757 4.41075 8.21726 4.84968C7.53696 5.2886 6.99787 5.91434 6.66468 6.6518C6.33149 7.38926 6.21835 8.20711 6.33885 9.00722C6.45935 9.80733 6.80836 10.5557 7.34401 11.1625C5.61725 11.8594 4.17062 13.1089 3.23069 14.7152C2.48161 13.4403 2.08582 11.9892 2.08401 10.5109C2.08401 8.28074 2.9707 6.14196 4.549 4.56502C6.1273 2.98809 8.26794 2.10217 10.5 2.10217C12.7321 2.10217 14.8727 2.98809 16.451 4.56502C18.0293 6.14196 18.916 8.28074 18.916 10.5109C18.9142 11.9892 18.5184 13.4403 17.7693 14.7152Z" fill="#34A853"/>
</svg>
