<svg width="50" height="48" viewBox="0 0 50 48" fill="none" xmlns="http://www.w3.org/2000/svg">
<ellipse cx="24.6387" cy="23.6446" rx="24.5" ry="23.5" transform="rotate(-0.339134 24.6387 23.6446)" fill="#2E7D32"/>
<path d="M36.4674 38.0747L13.7496 38.2092C13.401 38.2133 13.0633 38.0909 12.8015 37.8654C12.5397 37.64 12.3726 37.3276 12.3322 36.9885L11.1213 20.6242C11.1143 20.4414 11.1457 20.259 11.2135 20.0885C11.2813 19.9179 11.384 19.7628 11.5154 19.6326C11.6467 19.5024 11.804 19.4 11.9773 19.3316C12.1507 19.2632 12.3365 19.2303 12.5233 19.235L37.7018 19.0859C38.0758 19.0837 38.4353 19.2271 38.7013 19.4845C38.9673 19.7419 39.1179 20.0923 39.1201 20.4585L37.8704 36.8512C37.8308 37.1882 37.6659 37.4993 37.4071 37.7249C37.1484 37.9506 36.8139 38.0751 36.4674 38.0747V38.0747Z" stroke="#F5F1E6" stroke-width="3" stroke-linecap="round" stroke-linejoin="round"/>
<path d="M18.0846 23.6836L18.0396 16.0885C18.0288 14.2572 18.7613 12.4966 20.0759 11.1939C21.3905 9.89122 23.1796 9.15316 25.0496 9.14209C26.9196 9.13103 28.7173 9.84785 30.0473 11.1349C31.3772 12.4219 32.1305 14.1738 32.1413 16.005L32.1863 23.6001" stroke="#F5F1E6" stroke-width="3" stroke-linecap="round" stroke-linejoin="round"/>
</svg>
