<svg width="45" height="33" viewBox="0 0 45 33" fill="none" xmlns="http://www.w3.org/2000/svg">
<path d="M38.2492 5.80649H35.3693L34.6493 3.87101C34.1825 2.73532 33.3167 1.75263 32.1719 1.05906C31.027 0.365497 29.6597 -0.00460044 28.2594 4.31682e-05H16.7397C15.3257 0.00231874 13.9482 0.386526 12.8017 1.09844C11.6552 1.81035 10.7975 2.81402 10.3498 3.96778L9.6298 5.90326H6.74986C4.95969 5.90326 3.24283 6.51501 1.97699 7.60393C0.711144 8.69285 0 10.1697 0 11.7097V27.1936C0 28.7335 0.711144 30.2104 1.97699 31.2993C3.24283 32.3883 4.95969 33 6.74986 33H38.2492C40.0394 33 41.7562 32.3883 43.0221 31.2993C44.2879 30.2104 44.9991 28.7335 44.9991 27.1936V11.7097C45.014 10.9391 44.8504 10.1736 44.5179 9.45794C44.1854 8.74227 43.6906 8.0907 43.0623 7.54123C42.434 6.99176 41.6849 6.55538 40.8585 6.25755C40.0322 5.95971 39.1452 5.80638 38.2492 5.80649ZM40.4992 27.0968C40.4992 27.6101 40.2621 28.1024 39.8402 28.4654C39.4182 28.8283 38.8459 29.0323 38.2492 29.0323H6.74986C6.15314 29.0323 5.58085 28.8283 5.1589 28.4654C4.73696 28.1024 4.49991 27.6101 4.49991 27.0968V11.6129C4.49991 11.0996 4.73696 10.6073 5.1589 10.2443C5.58085 9.88137 6.15314 9.67745 6.74986 9.67745H11.2498C11.7404 9.69948 12.2259 9.58275 12.6322 9.3451C13.0385 9.10745 13.3432 8.76193 13.4997 8.36132L14.7147 5.18713C14.8656 4.80271 15.1532 4.46881 15.5368 4.23264C15.9203 3.99646 16.3805 3.86996 16.8521 3.87101H28.3719C28.8436 3.86996 29.3037 3.99646 29.6873 4.23264C30.0709 4.46881 30.3584 4.80271 30.5094 5.18713L31.7243 8.36132C31.8687 8.73051 32.1392 9.05363 32.5005 9.28844C32.8618 9.52325 33.297 9.65883 33.7493 9.67745H38.2492C38.8459 9.67745 39.4182 9.88137 39.8402 10.2443C40.2621 10.6073 40.4992 11.0996 40.4992 11.6129V27.0968ZM22.4995 9.67745C20.7195 9.67745 18.9795 10.1315 17.4995 10.9822C16.0195 11.8329 14.866 13.042 14.1848 14.4567C13.5036 15.8713 13.3254 17.428 13.6726 18.9297C14.0199 20.4315 14.8771 21.811 16.1357 22.8937C17.3944 23.9765 18.998 24.7138 20.7438 25.0125C22.4895 25.3113 24.2991 25.1579 25.9436 24.572C27.5881 23.986 28.9937 22.9937 29.9826 21.7206C30.9715 20.4474 31.4993 18.9506 31.4993 17.4194C31.4993 15.3661 30.5512 13.3969 28.8634 11.945C27.1756 10.4931 24.8864 9.67745 22.4995 9.67745ZM22.4995 21.2903C21.6095 21.2903 20.7395 21.0633 19.9995 20.638C19.2595 20.2126 18.6827 19.6081 18.3422 18.9007C18.0016 18.1934 17.9125 17.4151 18.0861 16.6642C18.2597 15.9133 18.6883 15.2236 19.3176 14.6822C19.9469 14.1408 20.7487 13.7722 21.6216 13.6228C22.4945 13.4734 23.3993 13.5501 24.2216 13.8431C25.0438 14.1361 25.7466 14.6322 26.2411 15.2688C26.7355 15.9054 26.9994 16.6538 26.9994 17.4194C26.9994 18.446 26.5253 19.4306 25.6814 20.1566C24.8375 20.8825 23.693 21.2903 22.4995 21.2903Z" fill="#34A853"/>
</svg>
