<svg width="32" height="33" viewBox="0 0 32 33" fill="none" xmlns="http://www.w3.org/2000/svg">
<path d="M15.8691 1.06625C12.2033 4.82833 10.1152 9.90042 10.0472 15.208H22.0202C21.9521 9.90042 19.8641 4.82833 16.1983 1.06625C19.8641 4.82833 21.9521 9.90042 22.0202 15.208H31C30.7324 11.35 29.0434 7.7389 26.2731 5.10242C23.5029 2.46593 19.8573 1 16.0711 1C12.2849 1 8.63936 2.46593 5.8691 5.10242C3.09885 7.7389 1.40977 11.35 1.14221 15.208H10.122C10.1701 9.91119 12.2307 4.84059 15.8691 1.06625V1.06625Z" stroke="#F5F1E6" stroke-width="2" stroke-linecap="round" stroke-linejoin="round"/>
<path d="M21.9903 15.208C21.9903 15.4603 21.9903 15.7126 21.9903 15.9725C21.9903 22.042 19.7004 27.4388 16.1534 30.8787C19.7004 27.4388 21.9903 22.042 21.9903 15.9725C21.9903 15.7126 21.9903 15.4603 21.9903 15.208ZM21.9903 15.208H10.0172C10.0172 15.4603 10.0172 15.7126 10.0172 15.9725C10.0172 22.042 12.307 27.4388 15.8541 30.8787C12.307 27.4388 10.0172 22.042 10.0172 15.9725C10.0172 15.7126 10.0172 15.4603 10.0172 15.208H1.03743C1.03743 15.4603 1 15.7126 1 15.9725C1 20.0272 2.57681 23.9158 5.38354 26.783C8.19027 29.6501 11.997 31.2609 15.9663 31.2609C19.9356 31.2609 23.7424 29.6501 26.5491 26.783C29.3558 23.9158 30.9326 20.0272 30.9326 15.9725C30.9326 15.7126 30.9326 15.4603 30.8952 15.208H21.9903Z" stroke="#F5F1E6" stroke-width="2" stroke-linecap="round" stroke-linejoin="round"/>
</svg>
