<svg width="21" height="21" viewBox="0 0 21 21" fill="none" xmlns="http://www.w3.org/2000/svg">
<path d="M11.1221 11.55L8.70654 13.9545C8.60811 14.0521 8.52997 14.1683 8.47665 14.2962C8.42333 14.4242 8.39588 14.5614 8.39588 14.7C8.39588 14.8386 8.42333 14.9759 8.47665 15.1038C8.52997 15.2318 8.60811 15.3479 8.70654 15.4455C8.80418 15.5439 8.92034 15.6221 9.04832 15.6754C9.1763 15.7287 9.31357 15.7561 9.45222 15.7561C9.59086 15.7561 9.72814 15.7287 9.85612 15.6754C9.9841 15.6221 10.1003 15.5439 10.1979 15.4455L14.3989 11.2455C14.4945 11.1457 14.5694 11.0279 14.6194 10.8991C14.7245 10.6434 14.7245 10.3567 14.6194 10.1011C14.5694 9.97217 14.4945 9.85441 14.3989 9.75456L10.1979 5.55458C10.1 5.45668 9.98372 5.37902 9.85577 5.32604C9.72783 5.27305 9.5907 5.24578 9.45222 5.24578C9.31373 5.24578 9.1766 5.27305 9.04866 5.32604C8.92072 5.37902 8.80447 5.45668 8.70654 5.55458C8.60862 5.65248 8.53094 5.7687 8.47795 5.89661C8.42495 6.02453 8.39767 6.16162 8.39767 6.30007C8.39767 6.43852 8.42495 6.57562 8.47795 6.70353C8.53094 6.83145 8.60862 6.94767 8.70654 7.04557L11.1221 9.45006H1.05025C0.771704 9.45006 0.504569 9.56068 0.30761 9.75759C0.110651 9.95451 0 10.2216 0 10.5001C0 10.7785 0.110651 11.0456 0.30761 11.2425C0.504569 11.4394 0.771704 11.55 1.05025 11.55H11.1221ZM10.5025 0.000104678C8.53965 -0.00865625 6.61366 0.532676 4.94295 1.5627C3.27224 2.59272 1.92369 4.07021 1.05025 5.82758C0.924902 6.0782 0.904278 6.36835 0.992909 6.63418C1.08154 6.90001 1.27217 7.11975 1.52286 7.24507C1.77355 7.37038 2.06376 7.391 2.32965 7.30239C2.59555 7.21378 2.81535 7.0232 2.94069 6.77257C3.60465 5.43206 4.61461 4.29313 5.8662 3.47347C7.1178 2.65382 8.56562 2.18317 10.0601 2.11017C11.5545 2.03716 13.0413 2.36446 14.3669 3.05823C15.6924 3.75199 16.8086 4.78706 17.6001 6.05647C18.3917 7.32588 18.8297 8.78357 18.8691 10.2789C18.9086 11.7742 18.5478 13.253 17.8243 14.5623C17.1007 15.8716 16.0406 16.964 14.7534 17.7266C13.4662 18.4891 11.9987 18.8942 10.5025 18.9C8.93642 18.9068 7.4002 18.472 6.0701 17.6455C4.74 16.8191 3.66993 15.6344 2.9827 14.2275C2.85736 13.9769 2.63756 13.7863 2.37166 13.6977C2.10577 13.6091 1.81556 13.6297 1.56487 13.755C1.31418 13.8804 1.12355 14.1001 1.03492 14.3659C0.946287 14.6318 0.966912 14.9219 1.09226 15.1725C1.92492 16.8478 3.19015 18.2703 4.75706 19.2928C6.32398 20.3153 8.13568 20.9007 10.0048 20.9884C11.8739 21.0762 13.7325 20.6631 15.3884 19.792C17.0442 18.9208 18.4373 17.6232 19.4233 16.0333C20.4094 14.4435 20.9527 12.6191 20.997 10.7489C21.0414 8.87872 20.5852 7.03065 19.6756 5.39585C18.766 3.76105 17.436 2.39889 15.8233 1.45026C14.2106 0.501629 12.3736 0.000982948 10.5025 0.000104678Z" fill="#DB1A1A"/>
</svg>
