<svg width="4581" height="634" viewBox="0 0 4581 634" fill="none" xmlns="http://www.w3.org/2000/svg">
<path d="M853.536 511H780.144V160.408H853.536V511ZM948.852 511H880.212V156.184H948.852V511ZM1105.44 460.312C1147.15 460.312 1168.27 433.912 1168.27 381.112C1168.27 328.312 1147.15 302.44 1105.44 302.44C1063.73 302.44 1042.61 328.312 1042.61 381.112C1042.61 433.912 1063.73 460.312 1105.44 460.312ZM1105.44 517.864C1021.49 517.864 971.858 461.896 971.858 381.112C971.858 298.744 1023.07 244.36 1105.44 244.36C1186.75 244.36 1237.44 298.216 1237.44 381.112C1237.44 463.48 1186.23 517.864 1105.44 517.864ZM1332.51 511H1263.87V251.224H1332.51V511ZM1332.51 220.072H1263.87V156.184H1332.51V220.072ZM1432.51 511H1363.87V156.184H1432.51V511ZM1589.1 460.312C1630.81 460.312 1651.93 433.912 1651.93 381.112C1651.93 328.312 1630.81 302.44 1589.1 302.44C1547.39 302.44 1526.27 328.312 1526.27 381.112C1526.27 433.912 1547.39 460.312 1589.1 460.312ZM1589.1 517.864C1505.15 517.864 1455.51 461.896 1455.51 381.112C1455.51 298.744 1506.73 244.36 1589.1 244.36C1670.41 244.36 1721.1 298.216 1721.1 381.112C1721.1 463.48 1669.88 517.864 1589.1 517.864ZM2099.29 363.16H1945.11V511H1871.72V160.408H2121.47V221.656H1945.11V301.384H2099.29V363.16ZM2274.03 412.264L2274.55 383.752C2267.69 390.616 2255.55 394.312 2230.2 399.064C2191.13 406.456 2178.46 417.544 2178.46 439.72C2178.46 459.256 2190.07 468.76 2211.72 468.76C2247.1 468.76 2273.5 442.888 2274.03 412.264ZM2343.19 511H2279.31C2277.19 504.664 2275.61 495.688 2275.08 487.768C2258.71 505.72 2231.26 517.864 2196.41 517.864C2137.27 517.864 2109.82 488.824 2109.82 446.584C2109.82 371.608 2159.98 363.16 2229.15 353.656C2263.47 348.904 2272.97 342.04 2272.97 324.088C2272.97 307.192 2256.07 297.16 2229.15 297.16C2197.99 297.16 2185.32 312.472 2182.15 335.704H2118.27C2119.32 281.848 2148.89 244.36 2232.31 244.36C2314.68 244.36 2343.19 281.32 2343.19 346.792V511ZM2442.1 511H2373.46V251.224H2437.88V282.376C2460.58 247.528 2486.98 244.36 2514.97 244.36H2523.94V314.584C2517.61 313.528 2511.27 313 2504.93 313C2462.69 313 2442.1 334.12 2442.1 375.832V511ZM2914.82 511H2847.76V353.656C2847.76 322.504 2831.39 300.328 2807.1 300.328C2781.76 300.328 2763.28 324.088 2763.28 355.768V511H2694.64V354.712C2694.64 313 2683.55 302.44 2653.46 302.44C2626 302.44 2611.74 319.336 2611.74 353.128V511H2543.1V251.224H2607.52V289.24C2624.94 254.92 2649.23 244.36 2683.55 244.36C2718.93 244.36 2735.82 255.448 2755.89 285.544C2770.14 257.032 2793.38 244.36 2826.11 244.36C2878.38 244.36 2914.82 282.376 2914.82 330.952V511ZM3006.11 355.768H3112.24C3111.18 317.224 3085.84 298.744 3058.91 298.744C3031.45 298.744 3008.75 319.864 3006.11 355.768ZM3182.99 399.064H3004C3006.11 438.136 3028.29 463.48 3062.08 463.48C3084.25 463.48 3103.79 452.392 3108.54 434.44H3179.29C3163.45 487.768 3120.69 517.864 3065.25 517.864C2978.65 517.864 2935.36 470.344 2935.36 376.36C2935.36 296.104 2981.29 244.36 3061.02 244.36C3140.75 244.36 3182.99 296.104 3182.99 399.064ZM3275.35 511H3206.71V251.224H3271.13V282.376C3293.83 247.528 3320.23 244.36 3348.22 244.36H3357.19V314.584C3350.86 313.528 3344.52 313 3338.18 313C3295.94 313 3275.35 334.12 3275.35 375.832V511ZM3588.84 329.896H3522.84C3519.15 304.552 3505.42 295.576 3474.27 295.576C3448.4 295.576 3433.61 301.912 3433.61 317.224C3433.61 332.536 3447.87 338.872 3475.85 346.792C3505.42 355.24 3533.4 361.048 3553.47 368.968C3580.92 380.056 3596.24 398.008 3596.24 431.8C3596.24 485.656 3556.64 517.864 3482.72 517.864C3402.99 517.864 3358.64 480.376 3357.58 427.576H3428.33C3428.33 451.864 3448.92 466.12 3482.19 466.12C3506.48 466.12 3528.12 458.728 3528.12 439.192C3528.12 420.712 3508.59 414.904 3486.41 409.624C3442.59 399.064 3418.3 391.672 3399.82 380.056C3375.53 364.744 3367.08 344.68 3367.08 321.448C3367.08 277.624 3397.18 244.36 3476.38 244.36C3551.36 244.36 3585.15 273.928 3588.84 329.896ZM4025.44 511H3951.52V353.656H3814.77V511H3741.38V160.408H3814.77V292.408H3951.52V160.408H4025.44V511ZM4286.76 511H4221.81V474.568C4203.86 504.136 4176.93 517.864 4141.03 517.864C4089.29 517.864 4052.85 479.32 4052.85 422.296V251.224H4121.49V411.736C4121.49 444.472 4136.28 460.312 4165.32 460.312C4200.17 460.312 4218.65 435.496 4218.65 401.176V251.224H4286.76V511ZM4439.88 461.896C4474.2 461.896 4498.49 429.688 4498.49 383.224C4498.49 329.896 4479.48 302.968 4439.35 302.968C4401.33 302.968 4381.8 330.952 4381.8 387.448C4381.8 431.272 4407.14 461.896 4439.88 461.896ZM4382.85 511H4316.85V156.184H4384.44V285.016C4403.97 257.56 4429.32 244.36 4461.53 244.36C4528.58 244.36 4568.18 299.8 4568.18 378.472C4568.18 466.12 4521.19 517.864 4455.72 517.864C4424.04 517.864 4399.75 505.72 4383.38 479.32L4382.85 511Z" fill="#E9FADB"/>
<path d="M252.102 588H251.394C186.012 588 137.547 567.798 101.667 534.04C65.8028 500.298 42.5661 453.065 27.5175 399.093C20.0812 372.423 14.6426 344.09 10.666 314.903H252.102V588Z" fill="#E9FADB"/>
<path d="M584.734 47.2093C584.813 156.038 587.393 291.174 557.302 399.093C542.254 453.064 519.017 500.297 483.153 534.04C447.273 567.798 398.808 588 333.426 588H332.718V314.903H426.868C461.273 314.903 489.164 286.956 489.164 252.481V234.038H332.718V192.187C332.718 164.642 346.637 128.195 385.027 98.6533C423.415 69.1131 486.233 46.5 584.026 46.5H584.734V47.2093Z" fill="#E9FADB"/>
<path d="M0.793885 46.5C98.5866 46.5 161.405 69.1131 199.793 98.6533C238.183 128.195 252.102 164.642 252.102 192.187V234.038H3.06555C-0.696601 169.682 0.0440814 104.766 0.0859786 47.2093V46.5H0.793885Z" fill="#E9FADB"/>
</svg>
