<svg width="585" height="542" viewBox="0 0 585 542" fill="none" xmlns="http://www.w3.org/2000/svg">
<path d="M252.102 541.5H251.394C186.012 541.5 137.547 521.298 101.667 487.54C65.8028 453.798 42.5661 406.565 27.5175 352.593C20.0812 325.923 14.6426 297.59 10.666 268.403H252.102V541.5Z" fill="#E9FADB"/>
<path d="M584.734 0.709342C584.813 109.538 587.393 244.674 557.302 352.593C542.254 406.564 519.017 453.797 483.153 487.54C447.273 521.298 398.808 541.5 333.426 541.5H332.718V268.403H426.868C461.273 268.403 489.164 240.456 489.164 205.981V187.538H332.718V145.687C332.718 118.142 346.637 81.6952 385.027 52.1533C423.415 22.6131 486.233 0 584.026 0H584.734V0.709342Z" fill="#E9FADB"/>
<path d="M0.793885 0C98.5866 2.66431e-05 161.405 22.6131 199.793 52.1533C238.183 81.6952 252.102 118.142 252.102 145.687V187.538H3.06555C-0.696601 123.182 0.0440814 58.2663 0.0859786 0.709342V0H0.793885Z" fill="#E9FADB"/>
</svg>
