<svg width="672" height="672" viewBox="0 0 672 672" fill="none" xmlns="http://www.w3.org/2000/svg">
<mask id="path-1-inside-1_905_460" fill="white">
<path d="M0 98C0 43.8761 43.8761 0 98 0H574C628.124 0 672 43.8761 672 98V574C672 628.124 628.124 672 574 672H98C43.8761 672 0 628.124 0 574V98Z"/>
</mask>
<path d="M0 98C0 43.8761 43.8761 0 98 0H574C628.124 0 672 43.8761 672 98V574C672 628.124 628.124 672 574 672H98C43.8761 672 0 628.124 0 574V98Z" fill="#E9FADB"/>
<path d="M98 0V7H574V0V-7H98V0ZM672 98H665V574H672H679V98H672ZM574 672V665H98V672V679H574V672ZM0 574H7V98H0H-7V574H0ZM98 672V665C47.7421 665 7 624.258 7 574H0H-7C-7 631.99 40.0101 679 98 679V672ZM672 574H665C665 624.258 624.258 665 574 665V672V679C631.99 679 679 631.99 679 574H672ZM574 0V7C624.258 7 665 47.7421 665 98H672H679C679 40.0101 631.99 -7 574 -7V0ZM98 0V-7C40.0101 -7 -7 40.0101 -7 98H0H7C7 47.7421 47.7421 7 98 7V0Z" fill="#D4D4D4" mask="url(#path-1-inside-1_905_460)"/>
<path d="M308.933 517.426H308.459C264.647 517.426 232.172 503.889 208.128 481.268C184.097 458.658 168.526 427.008 158.442 390.842C153.459 372.971 149.815 353.986 147.15 334.428H308.933V517.426Z" fill="#172E03"/>
<path d="M531.819 155.05C531.873 227.974 533.601 318.527 513.438 390.842C503.354 427.007 487.784 458.657 463.752 481.268C439.709 503.888 407.233 517.425 363.422 517.426H362.947V334.427H426.036C449.09 334.427 467.779 315.7 467.779 292.599V280.241H362.947V252.197C362.947 233.74 372.274 209.317 397.999 189.521C423.722 169.727 465.816 154.574 531.345 154.574H531.819V155.05Z" fill="#172E03"/>
<path d="M140.532 154.574C206.062 154.574 248.155 169.727 273.879 189.521C299.603 209.317 308.93 233.74 308.93 252.197V280.241H142.054C139.533 237.117 140.03 193.618 140.058 155.05V154.574H140.532Z" fill="#172E03"/>
</svg>
