<svg width="39" height="36" viewBox="0 0 39 36" fill="none" xmlns="http://www.w3.org/2000/svg">
<path d="M3.9 36C2.8275 36 1.90937 35.5594 1.14562 34.6781C0.381875 33.7969 0 32.7375 0 31.5V4.5C0 3.2625 0.381875 2.20312 1.14562 1.32187C1.90937 0.440625 2.8275 0 3.9 0H35.1C36.1725 0 37.0906 0.440625 37.8544 1.32187C38.6181 2.20312 39 3.2625 39 4.5V31.5C39 32.7375 38.6181 33.7969 37.8544 34.6781C37.0906 35.5594 36.1725 36 35.1 36H3.9ZM19.5 20.25L3.9 9V31.5H35.1V9L19.5 20.25ZM19.5 15.75L35.1 4.5H3.9L19.5 15.75ZM3.9 9V4.5V31.5V9Z" fill="#172E03"/>
</svg>
