<svg width="21" height="21" viewBox="0 0 21 21" fill="none" xmlns="http://www.w3.org/2000/svg">
<path d="M17.85 0H3.15C2.31457 0 1.51335 0.414843 0.922614 1.15327C0.331874 1.89169 0 2.89321 0 3.9375V17.0625C0 18.1068 0.331874 19.1083 0.922614 19.8467C1.51335 20.5852 2.31457 21 3.15 21H17.85C18.6854 21 19.4867 20.5852 20.0774 19.8467C20.6681 19.1083 21 18.1068 21 17.0625V3.9375C21 2.89321 20.6681 1.89169 20.0774 1.15327C19.4867 0.414843 18.6854 0 17.85 0ZM17.4195 2.625L11.2455 10.3425C11.1479 10.4655 11.0318 10.5632 10.9038 10.6298C10.7759 10.6964 10.6386 10.7307 10.5 10.7307C10.3614 10.7307 10.2241 10.6964 10.0962 10.6298C9.96824 10.5632 9.85211 10.4655 9.7545 10.3425L3.5805 2.625H17.4195ZM18.9 17.0625C18.9 17.4106 18.7894 17.7444 18.5925 17.9906C18.3956 18.2367 18.1285 18.375 17.85 18.375H3.15C2.87152 18.375 2.60445 18.2367 2.40754 17.9906C2.21063 17.7444 2.1 17.4106 2.1 17.0625V4.47562L8.274 12.1931C8.86463 12.9305 9.66525 13.3447 10.5 13.3447C11.3348 13.3447 12.1354 12.9305 12.726 12.1931L18.9 4.47562V17.0625Z" fill="#34A853"/>
</svg>
