<svg width="39" height="36" viewBox="0 0 39 36" fill="none" xmlns="http://www.w3.org/2000/svg">
<path d="M0 20V4C0 2.9 0.424306 1.95833 1.27292 1.175C2.12153 0.391667 3.14167 0 4.33333 0H17.3333V20H0ZM21.6667 0H34.6667C35.8583 0 36.8785 0.391667 37.7271 1.175C38.5757 1.95833 39 2.9 39 4V12H21.6667V0ZM21.6667 36V16H39V32C39 33.1 38.5757 34.0417 37.7271 34.825C36.8785 35.6083 35.8583 36 34.6667 36H21.6667ZM0 24H17.3333V36H4.33333C3.14167 36 2.12153 35.6083 1.27292 34.825C0.424306 34.0417 0 33.1 0 32V24ZM4.33333 16H13V4H4.33333V16ZM26 8H34.6667V4H26V8ZM26 20V32H34.6667V20H26ZM4.33333 28V32H13V28H4.33333Z" fill="#56BB5B"/>
</svg>
