<svg width="42" height="39" viewBox="0 0 42 39" fill="none" xmlns="http://www.w3.org/2000/svg">
<path d="M15.2537 39L14.4179 32.76C13.9652 32.5975 13.5386 32.4025 13.1381 32.175C12.7376 31.9475 12.3458 31.7037 11.9627 31.4437L5.74627 33.8812L0 24.6187L5.3806 20.8162C5.34577 20.5887 5.32836 20.3694 5.32836 20.1581V18.8419C5.32836 18.6306 5.34577 18.4112 5.3806 18.1838L0 14.3812L5.74627 5.11875L11.9627 7.55625C12.3458 7.29625 12.7463 7.0525 13.1642 6.825C13.5821 6.5975 14 6.4025 14.4179 6.24L15.2537 0H26.7463L27.5821 6.24C28.0348 6.4025 28.4614 6.5975 28.8619 6.825C29.2624 7.0525 29.6542 7.29625 30.0373 7.55625L36.2537 5.11875L42 14.3812L36.6194 18.1838C36.6542 18.4112 36.6716 18.6306 36.6716 18.8419V20.1581C36.6716 20.3694 36.6368 20.5887 36.5672 20.8162L41.9478 24.6187L36.2015 33.8812L30.0373 31.4437C29.6542 31.7037 29.2537 31.9475 28.8358 32.175C28.4179 32.4025 28 32.5975 27.5821 32.76L26.7463 39H15.2537ZM21.1045 26.325C23.1244 26.325 24.8483 25.6587 26.2761 24.3262C27.704 22.9937 28.4179 21.385 28.4179 19.5C28.4179 17.615 27.704 16.0063 26.2761 14.6737C24.8483 13.3412 23.1244 12.675 21.1045 12.675C19.0498 12.675 17.3172 13.3412 15.9067 14.6737C14.4963 16.0063 13.791 17.615 13.791 19.5C13.791 21.385 14.4963 22.9937 15.9067 24.3262C17.3172 25.6587 19.0498 26.325 21.1045 26.325ZM21.1045 22.425C20.2338 22.425 19.4938 22.1406 18.8843 21.5719C18.2749 21.0031 17.9701 20.3125 17.9701 19.5C17.9701 18.6875 18.2749 17.9969 18.8843 17.4281C19.4938 16.8594 20.2338 16.575 21.1045 16.575C21.9751 16.575 22.7152 16.8594 23.3246 17.4281C23.9341 17.9969 24.2388 18.6875 24.2388 19.5C24.2388 20.3125 23.9341 21.0031 23.3246 21.5719C22.7152 22.1406 21.9751 22.425 21.1045 22.425ZM18.9104 35.1H23.0373L23.7687 29.9325C24.8483 29.6725 25.8495 29.2906 26.7724 28.7869C27.6953 28.2831 28.5398 27.6737 29.306 26.9587L34.4776 28.9575L36.5149 25.6425L32.0224 22.4737C32.1965 22.0187 32.3184 21.5394 32.3881 21.0356C32.4577 20.5319 32.4925 20.02 32.4925 19.5C32.4925 18.98 32.4577 18.4681 32.3881 17.9644C32.3184 17.4606 32.1965 16.9812 32.0224 16.5262L36.5149 13.3575L34.4776 10.0425L29.306 12.09C28.5398 11.3425 27.6953 10.7169 26.7724 10.2131C25.8495 9.70937 24.8483 9.3275 23.7687 9.0675L23.0896 3.9H18.9627L18.2313 9.0675C17.1517 9.3275 16.1505 9.70937 15.2276 10.2131C14.3047 10.7169 13.4602 11.3262 12.694 12.0412L7.52239 10.0425L5.48507 13.3575L9.97761 16.4775C9.80348 16.965 9.68159 17.4525 9.61194 17.94C9.54229 18.4275 9.50746 18.9475 9.50746 19.5C9.50746 20.02 9.54229 20.5237 9.61194 21.0112C9.68159 21.4987 9.80348 21.9862 9.97761 22.4737L5.48507 25.6425L7.52239 28.9575L12.694 26.91C13.4602 27.6575 14.3047 28.2831 15.2276 28.7869C16.1505 29.2906 17.1517 29.6725 18.2313 29.9325L18.9104 35.1Z" fill="#56BB5B"/>
</svg>
