<svg width="66" height="49" viewBox="0 0 66 49" fill="none" xmlns="http://www.w3.org/2000/svg">
<path d="M57.1534 34.3452H21.1763L13.5319 7.3486H63.4999L57.1534 34.3452Z" stroke="#F5F1E6" stroke-width="5" stroke-linecap="round" stroke-linejoin="round"/>
<path d="M29.1064 45.6837C30.1815 45.6837 31.0532 44.9585 31.0532 44.0639C31.0532 43.1693 30.1815 42.4441 29.1064 42.4441C28.0312 42.4441 27.1595 43.1693 27.1595 44.0639C27.1595 44.9585 28.0312 45.6837 29.1064 45.6837Z" stroke="#F5F1E6" stroke-width="5" stroke-linecap="round" stroke-linejoin="round"/>
<path d="M48.5745 45.6837C49.6497 45.6837 50.5213 44.9585 50.5213 44.0639C50.5213 43.1693 49.6497 42.4441 48.5745 42.4441C47.4993 42.4441 46.6277 43.1693 46.6277 44.0639C46.6277 44.9585 47.4993 45.6837 48.5745 45.6837Z" stroke="#F5F1E6" stroke-width="5" stroke-linecap="round" stroke-linejoin="round"/>
<path d="M59.6064 20.8469H41.4362" stroke="#F5F1E6" stroke-width="5" stroke-linecap="round" stroke-linejoin="round"/>
<path d="M13.6098 7.54297L10.2743 4.77852C8.6669 3.43766 6.51315 2.64766 4.23918 2.56482L2.5 2.50003" stroke="#F5F1E6" stroke-width="5" stroke-linecap="round" stroke-linejoin="round"/>
</svg>
