<svg xmlns="http://www.w3.org/2000/svg" width="203" height="50" viewBox="0 0 203 50" fill="none">
  <g clip-path="url(#clip0_107_151)">
    <path d="M26.5 9L30.878 21.7832H45.0456L33.5838 29.6836L37.9618 42.4668L26.5 34.5664L15.0382 42.4668L19.4162 29.6836L7.9544 21.7832H22.122L26.5 9Z" fill="#FFCB45"/>
    <path d="M70.5 9L74.878 21.7832H89.0456L77.5838 29.6836L81.9618 42.4668L70.5 34.5664L59.0382 42.4668L63.4162 29.6836L51.9544 21.7832H66.122L70.5 9Z" fill="#FFCB45"/>
    <path d="M114.5 9L118.878 21.7832H133.046L121.584 29.6836L125.962 42.4668L114.5 34.5664L103.038 42.4668L107.416 29.6836L95.9544 21.7832H110.122L114.5 9Z" fill="#FFCB45"/>
    <path d="M158.5 9L162.878 21.7832H177.046L165.584 29.6836L169.962 42.4668L158.5 34.5664L147.038 42.4668L151.416 29.6836L139.954 21.7832H154.122L158.5 9Z" fill="#FFCB45"/>
    <path d="M202.5 9L206.878 21.7832H221.046L209.584 29.6836L213.962 42.4668L202.5 34.5664L191.038 42.4668L195.416 29.6836L183.954 21.7832H198.122L202.5 9Z" fill="#FFCB45"/>
  </g>
  <defs>
    <clipPath id="clip0_107_151">
      <rect width="203" height="49.1234" fill="white"/>
    </clipPath>
  </defs>
</svg>
