<svg width="45" height="33" viewBox="0 0 45 33" fill="none" xmlns="http://www.w3.org/2000/svg">
<path d="M43.9425 3.1625C43.6005 2.92114 43.2125 2.79407 42.8175 2.79407C42.4225 2.79407 42.0345 2.92114 41.6925 3.1625L33.75 7.9475C33.6859 5.81232 32.9465 3.7908 31.6875 2.30846C30.4286 0.826113 28.7481 -0.00143488 27 1.86768e-06H6.75C4.95979 1.86768e-06 3.2429 0.869196 1.97703 2.41637C0.711159 3.96355 0 6.06197 0 8.25V24.75C0 26.938 0.711159 29.0365 1.97703 30.5836C3.2429 32.1308 4.95979 33 6.75 33H27C28.7481 33.0014 30.4286 32.1739 31.6875 30.6915C32.9465 29.2092 33.6859 27.1877 33.75 25.0525L41.76 29.9475C42.0667 30.1397 42.4054 30.2432 42.75 30.25C43.1713 30.2517 43.5844 30.1087 43.9425 29.8375C44.2668 29.5898 44.534 29.2452 44.719 28.8362C44.9041 28.4272 45.0008 27.9673 45 27.5V5.5C45.0008 5.03265 44.9041 4.57278 44.719 4.16379C44.534 3.7548 44.2668 3.4102 43.9425 3.1625ZM29.25 24.75C29.25 25.4793 29.0129 26.1788 28.591 26.6945C28.169 27.2103 27.5967 27.5 27 27.5H6.75C6.15326 27.5 5.58097 27.2103 5.15901 26.6945C4.73705 26.1788 4.5 25.4793 4.5 24.75V8.25C4.5 7.52066 4.73705 6.82118 5.15901 6.30546C5.58097 5.78973 6.15326 5.5 6.75 5.5H27C27.5967 5.5 28.169 5.78973 28.591 6.30546C29.0129 6.82118 29.25 7.52066 29.25 8.25V24.75ZM40.5 23.045L33.75 18.92V14.08L40.5 9.955V23.045Z" fill="#34A853"/>
</svg>
